<?xml version="1.0" encoding="utf-8"?>
<!-- Generator: Adobe Illustrator 26.3.1, SVG Export Plug-In . SVG Version: 6.00 Build 0)  -->
<svg version="1.1" id="Layer_1" xmlns="http://www.w3.org/2000/svg" xmlns:xlink="http://www.w3.org/1999/xlink" x="0px" y="0px"
	 viewBox="0 0 20 20" style="enable-background:new 0 0 20 20;" xml:space="preserve">
<style type="text/css">
	.st0{fill:#D9D9D9;}
	.st1{fill:#FFFFFF;}
</style>
<g>
	<path class="st0" d="M15.2,18.5H4.8c-0.7,0-1.3-0.6-1.3-1.3V2.7c0-0.7,0.6-1.3,1.3-1.3h7.5c0.3,0,0.6,0.1,0.8,0.4l3.2,3.6
		c0.1,0.2,0.2,0.4,0.2,0.6v11.3C16.5,18,15.9,18.5,15.2,18.5z"/>
	<path class="st1" d="M14.1,8.4H5.9c-0.2,0-0.4-0.2-0.4-0.4l0,0c0-0.2,0.2-0.4,0.4-0.4h8.2c0.2,0,0.4,0.2,0.4,0.4l0,0
		C14.6,8.2,14.4,8.4,14.1,8.4z"/>
	<path class="st1" d="M14.1,11.1H5.9c-0.2,0-0.4-0.2-0.4-0.4l0,0c0-0.2,0.2-0.4,0.4-0.4h8.2c0.2,0,0.4,0.2,0.4,0.4l0,0
		C14.6,10.9,14.4,11.1,14.1,11.1z"/>
	<path class="st1" d="M11.8,13.8H8.2c-0.2,0-0.4-0.2-0.4-0.4l0,0c0-0.2,0.2-0.4,0.4-0.4h3.5c0.2,0,0.4,0.2,0.4,0.4l0,0
		C12.2,13.6,12,13.8,11.8,13.8z"/>
</g>
</svg>
