 <svg
            width="20px"
            version="1.1"
            id="Layer_1"
            xmlns="http://www.w3.org/2000/svg"
            xmlns:xlink="http://www.w3.org/1999/xlink"
            x="0px"
            y="0px"
            viewBox="0 0 512 512"
            xml:space="preserve"
            >
              <path
                style="fill: #d9d9d9"
                d="M390.3,474.6H121.7c-17.8,0-32.2-14.4-32.2-32.2V69.6c0-17.8,14.4-32.2,32.2-32.2h191.9c7.7,0,15,3.5,20,9.4l82.9,90.9c3.8,4.6,5.9,10.4,5.9,16.4v288.3C422.4,460.2,408,474.6,390.3,474.6z"
              />
              <path
                style="fill: #fff"
                class="st0"
                d="M361.1,214.6H150.9c-6.3,0-11.4-5.1-11.4-11.4v0c0-6.3,5.1-11.4,11.4-11.4h210.2c6.3,0,11.4,5.1,11.4,11.4v0C372.5,209.5,367.4,214.6,361.1,214.6z"
              />
              <path
                style="fill: #fff"
                class="st0"
                d="M361.1,283.3H150.9c-6.3,0-11.4-5.1-11.4-11.4l0,0c0-6.3,5.1-11.4,11.4-11.4h210.2c6.3,0,11.4,5.1,11.4,11.4l0,0C372.5,278.2,367.4,283.3,361.1,283.3z"
              />
              <path
                style="fill: #fff"
                class="st0"
                d="M240.5,352.1h-89.6c-6.3,0-11.4-5.1-11.4-11.4v0c0-6.3,5.1-11.4,11.4-11.4h89.6c6.3,0,11.4,5.1,11.4,11.4v0C251.9,347,246.8,352.1,240.5,352.1z"
              />
            </svg>
