 <svg width="20px" version="1.1" id="Layer_1" xmlns="http://www.w3.org/2000/svg" xmlns:xlink="http://www.w3.org/1999/xlink" x="0px" y="0px" viewBox="0 0 512 512" xml:space="preserve" class="icon-folder__opened" style="enable-background:new 0 0 512 512" data-v-1c65f1cc=""><g data-v-1c65f1cc=""><path fill="#008CFF" d="M415.3,133.6c-5.2-9.5-13.2-13.5-23.8-13.5c-68.4,0.1-187.9,0-245.1,0c-11.1,0-15.1-4-15.2-15.1c0-10.3-4.5-14.8-14.8-14.8
            c-19.3,0-38.6,0-57.9,0c-2.9,0-5.9,0.2-8.7,0.9C38.4,94,31.6,103.3,31.6,116c0,64.6,0,199.5,0,199.5s20.6-98.3,30.2-144.9
            c2.2-10.7,5.6-13.5,16.6-13.5c108,0,279.1,0,338.1,0c0.9,0,1.5-0.3,1.5-1.3C418,148.4,418.6,139.6,415.3,133.6z" data-v-1c65f1cc=""></path> <path fill="#008CFF" d="M461.4,180.9c0,0-334.4,0-373.7,0c-2.5,0-4.2,1-4.8,3.9c-13.9,68-44.2,215.4-45.4,221.1c-1.9,9.1,3.1,15.4,12.4,15.8
            c0.5,0,268.8,0,382.4,0c15.5,0,24.6-7.9,26.7-23.2c0.5-3.4,21.3-194.2,21.3-196.8l0,0C481.4,190.6,472.6,180.9,461.4,180.9z" data-v-1c65f1cc=""></path></g>
          </svg>