<?xml version="1.0" encoding="utf-8"?>
<!-- Generator: Adobe Illustrator 26.3.1, SVG Export Plug-In . SVG Version: 6.00 Build 0)  -->
<svg version="1.1" id="Layer_1" xmlns="http://www.w3.org/2000/svg" xmlns:xlink="http://www.w3.org/1999/xlink" x="0px" y="0px"
	 viewBox="0 0 20 20" style="enable-background:new 0 0 20 20;" xml:space="preserve">
<style type="text/css">
	.st0{fill:#008CFF;}
</style>
<path class="st0" d="M16.2,5.2c-0.2-0.4-0.5-0.5-0.9-0.5c-2.7,0-7.3,0-9.6,0c-0.3,0-0.6-0.3-0.6-0.6c0-0.4-0.2-0.6-0.6-0.6
	c-0.8,0-1.5,0-2.3,0c-0.1,0-0.2,0-0.3,0C1.5,3.7,1.2,4,1.2,4.5v10.9c0,0.6,0.5,1,1,1h13.1c0.6,0,1-0.5,1-1c0-2.6,0-9.3,0-9.4
	C16.3,5.8,16.4,5.5,16.2,5.2z"/>
</svg>
