<?xml version="1.0" encoding="utf-8"?>
<!-- Generator: Adobe Illustrator 26.3.1, SVG Export Plug-In . SVG Version: 6.00 Build 0)  -->
<svg version="1.1" id="Layer_1" xmlns="http://www.w3.org/2000/svg" xmlns:xlink="http://www.w3.org/1999/xlink" x="0px" y="0px"
	 viewBox="0 0 20 20" style="enable-background:new 0 0 20 20;" xml:space="preserve">
<style type="text/css">
	.st0{fill:#008CFF;}
</style>
<g>
	<path class="st0" d="M16.2,5.2c-0.2-0.4-0.5-0.5-0.9-0.5c-2.7,0-7.3,0-9.6,0c-0.4,0-0.6-0.2-0.6-0.6S4.9,3.5,4.5,3.5
		c-0.8,0-1.5,0-2.3,0c-0.1,0-0.2,0-0.3,0C1.5,3.7,1.2,4,1.2,4.5c0,2.5,0,7.8,0,7.8S2,8.5,2.4,6.7C2.5,6.3,2.6,6.2,3,6.2
		c4.2,0,10.9,0,13.2,0c0,0,0.1,0,0.1-0.1C16.3,5.8,16.4,5.5,16.2,5.2z"/>
	<path class="st0" d="M18,7.1c0,0-13.1,0-14.6,0c-0.1,0-0.2,0-0.2,0.2c-0.5,2.7-1.7,8.4-1.8,8.6c-0.1,0.4,0.1,0.6,0.5,0.6
		c0,0,10.5,0,14.9,0c0.6,0,1-0.3,1-0.9c0-0.1,0.8-7.6,0.8-7.7l0,0C18.8,7.4,18.5,7.1,18,7.1z"/>
</g>
</svg>
